<?xml version="1.0" encoding="utf-8"?>
<!-- Generator: Adobe Illustrator 22.1.0, SVG Export Plug-In . SVG Version: 6.00 Build 0)  -->
<svg version="1.1" id="Layer_1" xmlns="http://www.w3.org/2000/svg" xmlns:xlink="http://www.w3.org/1999/xlink" x="0px" y="0px"
	 viewBox="0 0 384 384" style="enable-background:new 0 0 384 384;" xml:space="preserve">
<style type="text/css">
	.st0{fill:#00FFFF;}
	.st1{fill:#09003F;stroke:#09003F;stroke-miterlimit:10;}
	.st2{fill:none;}
	.st3{fill:#999999;}
	.st4{fill:#FFFFFF;}
	.st5{fill:#7FD6FF;stroke:#000000;stroke-miterlimit:10;}
	.st6{fill:#21B1FF;stroke:#000000;stroke-miterlimit:10;}
</style>
<path class="st0" d="M-458,0"/>
<line class="st1" x1="-0.5" y1="35" x2="-0.5" y2="383.5"/>
<line class="st2" x1="-385" y1="405" x2="-385" y2="156"/>
<line class="st2" x1="-361" y1="405" x2="-385" y2="405"/>
<line class="st2" x1="-361" y1="156" x2="-361" y2="405"/>
<line class="st2" x1="-385" y1="156" x2="-361" y2="156"/>
<rect x="-470" y="67" class="st3" width="170" height="251"/>
<rect x="-469" y="340" class="st4" width="170" height="251"/>
<rect x="-421.3" y="-301.1" class="st2" width="244.3" height="292"/>
<g>
	<g>
		<path class="st5" d="M140.1,384l1.7-357.4L261.6,4.5c23.8-4.4,43.4-5.8,59.3-4.3c15.4,1.5,27.8,4.9,37.3,10.2
			c9.3,5.2,15.9,12,19.8,20.4c3.9,8.3,5.8,17.4,5.8,27.2l-0.1,11c0,8.2-1,15.3-2.9,21.4c-1.9,6.2-4.7,11.9-8.5,17.2
			c-7.2,10-18.4,20.1-33.7,30.4c15.7,0.3,27,4,34.1,11.2c7,7.1,10.5,18.7,10.4,34.7l-0.1,16.9c-0.1,26.5-9.7,50.4-29.1,72.4
			c-20,22.6-53.1,43.7-101.4,63.9L140.1,384z M225.7,56.6l-0.4,93l35-9.8c24.8-6.9,41-15.3,49.1-25.1c8-9.7,12.1-21.8,12.2-36.3
			c0.1-14.2-4.3-23.8-13.2-28.9c-9-5.2-25.7-5.2-50.6,0.2L225.7,56.6z M225,192.3l-0.5,108.2l33.5-12.9
			c15.2-5.8,26.9-11.7,35.2-17.6c8.2-5.8,14.4-11.9,18.6-18.2c4.1-6.3,6.7-12.8,7.6-19.7c0.9-6.8,1.4-14.1,1.5-21.8
			c0-8-0.6-14.7-1.9-20.1c-1.3-5.5-4-9.6-8.2-12.5c-4.6-2.7-10.9-3.8-18.8-3.3c-8.1,0.5-18.9,2.9-32.7,7.2L225,192.3z"/>
	</g>
</g>
<g>
	<g>
		<path class="st6" d="M83.9,340c-26.9-19-45.5-39.6-56.7-62C16.3,256.2,11,232,11,205.1v-17.2c0-16.3,2-28.1,6-35.5
			c4-7.4,10.4-11.4,19.2-12c-8.6-10.2-14.8-20.2-18.9-30.3c-2.1-5.3-3.7-11.1-4.8-17.3C11.5,86.7,11,79.4,11,71.1V59.9
			c0-10,1.1-19.3,3.3-27.7c2.2-8.5,6-15.5,11.3-20.9c5.4-5.5,12.3-9,21-10.6c8.9-1.6,19.9-0.4,33.1,3.8L146,25.7V384L83.9,340z
			 M81.8,50.1c-13.9-5.2-23.2-5-28.3,0.4c-5,5.3-7.5,15.1-7.5,29.4c0,14.7,2.2,26.8,6.7,36.5c4.5,9.8,13.6,18,27.4,24.6l19.4,9.3
			V56.7L81.8,50.1z M80.5,183.4c-7.6-4-13.7-6.2-18.2-6.6c-4.5-0.4-8,0.8-10.6,3.7c-2.3,3-3.8,7.2-4.6,12.8
			c-0.8,5.6-1.1,12.4-1.1,20.4c0,7.8,0.3,15.1,0.8,22c0.5,6.9,1.9,13.5,4.2,19.7c2.3,6.3,5.8,12.3,10.3,18
			c4.6,5.8,11.2,11.4,19.6,16.9l18.6,12.1v-109L80.5,183.4z"/>
	</g>
</g>
</svg>
